<?xml version="1.0" standalone="no"?>
<!DOCTYPE svg PUBLIC "-//W3C//DTD SVG 20010904//EN"
 "http://www.w3.org/TR/2001/REC-SVG-20010904/DTD/svg10.dtd">
<svg version="1.0" xmlns="http://www.w3.org/2000/svg"
 width="700.000000pt" height="700.000000pt" viewBox="0 0 700.000000 700.000000"
 preserveAspectRatio="xMidYMid meet">
<metadata>
Created by potrace 1.11, written by Peter Selinger 2001-2013
</metadata>
<g transform="translate(0.000000,700.000000) scale(0.100000,-0.100000)"
fill="#000000" stroke="none">
<path d="M3146 5278 c-22 -13 -49 -39 -60 -58 -21 -35 -21 -38 -21 -1665 0
-1612 0 -1630 20 -1663 57 -95 191 -100 259 -9 l21 28 0 1644 0 1644 -21 27
c-53 71 -130 92 -198 52z"/>
<path d="M3719 5199 c-20 -12 -46 -39 -58 -59 l-21 -38 2 -1595 3 -1596 21
-28 c68 -92 202 -86 261 12 17 29 18 92 18 1627 l0 1597 -21 27 c-53 71 -138
93 -205 53z"/>
<path d="M2610 4451 c-19 -10 -45 -33 -57 -51 l-23 -33 0 -1241 c0 -1221 0
-1242 20 -1274 59 -96 201 -96 260 0 20 32 20 53 20 1266 0 1385 6 1280 -75
1327 -50 30 -98 32 -145 6z"/>
<path d="M4270 3748 c-18 -13 -43 -36 -54 -51 -21 -28 -21 -34 -24 -890 l-2
-862 22 -45 c28 -54 72 -82 133 -82 52 0 98 24 129 65 21 28 21 32 24 894 2
865 2 866 -19 910 -38 78 -140 107 -209 61z"/>
<path d="M4811 3221 c-18 -10 -44 -35 -57 -57 l-24 -39 0 -613 c0 -590 1 -614
20 -651 53 -105 189 -109 264 -8 21 28 21 35 21 657 0 622 0 629 -21 657 -52
70 -132 92 -203 54z"/>
<path d="M2075 3156 c-37 -17 -70 -52 -84 -89 -7 -19 -11 -218 -11 -594 0
-548 1 -568 20 -607 26 -53 62 -78 121 -84 64 -6 121 26 149 83 20 41 20 58
18 623 -3 569 -3 581 -24 608 -48 64 -126 89 -189 60z"/>
<path d="M1515 2836 c-37 -17 -70 -52 -84 -89 -7 -18 -11 -171 -11 -434 0
-388 1 -409 20 -447 26 -53 62 -78 121 -84 64 -6 121 26 149 84 20 40 21 57
18 462 -3 407 -4 421 -24 448 -48 64 -126 89 -189 60z"/>
<path d="M5370 2771 c-19 -10 -45 -36 -57 -57 -22 -39 -23 -44 -23 -427 0
-366 1 -390 20 -426 53 -105 189 -109 264 -8 20 28 21 38 21 432 0 394 -1 404
-21 432 -52 70 -133 92 -204 54z"/>
</g>
</svg>
