<?xml version="1.0" standalone="no"?>
<!DOCTYPE svg PUBLIC "-//W3C//DTD SVG 20010904//EN"
 "http://www.w3.org/TR/2001/REC-SVG-20010904/DTD/svg10.dtd">
<svg version="1.0" xmlns="http://www.w3.org/2000/svg"
 width="700.000000pt" height="700.000000pt" viewBox="0 0 700.000000 700.000000"
 preserveAspectRatio="xMidYMid meet">
<metadata>
Created by potrace 1.11, written by Peter Selinger 2001-2013
</metadata>
<g transform="translate(0.000000,700.000000) scale(0.100000,-0.100000)"
fill="#000000" stroke="none">
<path d="M3043 5903 c-54 -18 -110 -77 -126 -130 -9 -32 -12 -537 -12 -2225 1
-2070 2 -2185 19 -2216 69 -131 232 -162 332 -64 74 72 68 -134 69 2282 1
1744 -1 2184 -12 2220 -13 48 -58 102 -105 126 -40 21 -116 24 -165 7z"/>
<path d="M3828 5804 c-53 -16 -123 -87 -136 -138 -5 -17 -8 -992 -8 -2166 l1
-2135 25 -45 c89 -159 323 -137 380 36 19 56 19 4261 1 4317 -35 106 -152 164
-263 131z"/>
<path d="M2312 4786 c-19 -6 -50 -27 -69 -45 -72 -69 -67 75 -68 -1751 -1
-1768 -4 -1686 50 -1755 30 -41 106 -77 159 -77 94 0 186 71 203 156 5 22 9
779 8 1681 l0 1640 -24 48 c-47 96 -158 140 -259 103z"/>
<path d="M4555 3841 c-53 -24 -83 -55 -106 -105 -18 -39 -19 -91 -19 -1201 0
-1110 1 -1162 19 -1201 78 -171 323 -161 386 15 13 38 15 183 15 1185 0 709
-4 1154 -10 1176 -13 49 -66 109 -114 131 -52 24 -120 24 -171 0z"/>
<path d="M5325 3140 c-68 -15 -117 -54 -151 -120 -17 -33 -18 -82 -19 -865 l0
-831 26 -49 c15 -30 42 -62 68 -80 38 -27 51 -30 116 -30 65 0 78 3 117 30 23
17 54 51 68 75 l25 45 0 815 c1 448 -3 833 -7 856 -21 100 -142 177 -243 154z"/>
<path d="M1551 3015 c-51 -30 -65 -45 -91 -100 -18 -38 -19 -73 -20 -805 0
-471 4 -778 10 -799 25 -88 91 -141 185 -149 95 -7 162 33 205 123 19 38 20
71 20 815 0 749 -1 776 -20 818 -50 110 -186 155 -289 97z"/>
<path d="M823 2599 c-43 -12 -108 -79 -124 -127 -18 -54 -18 -1121 0 -1174 16
-49 80 -113 127 -128 20 -7 60 -10 90 -8 68 6 124 42 161 105 l28 48 1 555 c0
308 -4 571 -9 591 -27 109 -154 173 -274 138z"/>
<path d="M6075 2531 c-59 -14 -90 -38 -135 -101 l-25 -35 -2 -520 c-2 -346 1
-534 8 -561 39 -150 233 -205 344 -97 69 67 67 49 67 628 0 564 0 565 -55 623
-47 50 -137 78 -202 63z"/>
</g>
</svg>
